<svg viewBox="0 0 410.21 115.53" xmlns="http://www.w3.org/2000/svg"><g fill="#8749ff"><path d="m40.85 103.03c3.53 6.58 4.31 7.93 6.34 11.07h-15.55c-.84-2.39-2.57-6.36-4.13-9.5l-9.27-18.56-6.04 7.56v9.43c0 4.64.12 7.11.48 11.07h-12.68c.36-3.82.48-6.58.48-11.07v-40.11c0-4.56-.12-7.48-.48-11.07h12.68c-.36 3.89-.48 6.36-.48 11.07v13.24l11.9-15.94c2.33-3.07 3.89-5.61 5.2-8.38h16.15c-1.08 1.35-1.5 1.95-2.33 2.99q-3.11 3.89-4.19 5.24l-12.5 16.39 14.42 26.56z"/><path d="m98.22 82.68c0 19.75-9.63 32.85-24.17 32.85s-24.11-12.8-24.11-32.62 9.45-32.4 24.17-32.4 24.11 12.57 24.11 32.18zm-12.44.15c0-12.12-4.43-19.46-11.66-19.46s-11.78 7.41-11.78 19.46 4.49 19.75 11.78 19.75 11.66-7.48 11.66-19.75z"/><path d="m145.05 103.03c3.53 6.58 4.31 7.93 6.34 11.07h-15.55c-.84-2.39-2.57-6.36-4.13-9.5l-9.27-18.56-6.04 7.56v9.43c0 4.64.12 7.11.48 11.07h-12.68c.36-3.82.48-6.58.48-11.07v-40.11c0-4.56-.12-7.48-.48-11.07h12.68c-.36 3.89-.48 6.36-.48 11.07v13.24l11.9-15.94c2.33-3.07 3.89-5.61 5.2-8.38h16.15c-1.08 1.35-1.5 1.95-2.33 2.99q-3.11 3.89-4.19 5.24l-12.5 16.39 14.42 26.56z"/><path d="m168.8 51.85c-.36 3.07-.48 5.61-.48 11.07v40.11c0 5.16.12 7.93.48 11.07h-13.16c.36-2.92.48-6.06.48-11.07v-40.11c0-5.61-.12-7.78-.48-11.07z"/><path d="m242.91 82.68c0 19.75-9.63 32.85-24.17 32.85s-24.1-12.8-24.1-32.62 9.45-32.4 24.17-32.4 24.11 12.57 24.11 32.18zm-12.44.15c0-12.12-4.43-19.46-11.66-19.46s-11.78 7.41-11.78 19.46 4.49 19.75 11.78 19.75 11.66-7.48 11.66-19.75z"/><path d="m288.19 114.63c-2.51-.37-4.91-.52-9.27-.52h-23.15c-3.95 0-6.16.07-8.91.22v-12.95c1.44-1.8 2.93-3.74 5.44-7.63l17.47-26.19c.42-.6.6-.9 1.85-2.69-1.08.08-2.33.08-2.99.08h-10.77c-3.95 0-6.88.15-9.15.52v-14.14c3.23.37 5.62.52 9.15.52h20.28c3.35 0 5.02-.07 8.97-.22v12.5c-1.44 1.8-3.35 4.49-5.86 8.38l-16.99 25.67c-.48.75-.96 1.42-2.03 2.92.54-.07 1.56-.07 3.05-.07h13.64c3.65 0 6.16-.15 9.27-.52v14.14z"/><path d="m327.48 114.11c-.48-3.59-.84-5.54-1.44-8.08l-1.61-6.36h-17.05l-1.61 6.36c-.78 2.99-1.2 5.31-1.5 8.08h-14c.9-2.25 1.44-4.04 2.87-9.13l12.92-45.05c1.08-3.67 1.62-5.91 1.91-8.08h15.61c.42 2.17.84 4.12 2.03 8.08l12.98 45.05c1.14 3.97 2.09 7.03 2.87 9.13h-14zm-11.66-49.46-5.56 22.45h11.25l-5.68-22.45z"/><path d="m386.46 103.03c3.53 6.58 4.31 7.93 6.34 11.07h-15.55c-.84-2.39-2.57-6.36-4.13-9.5l-9.27-18.56-6.04 7.56v9.43c0 4.64.12 7.11.48 11.07h-12.68c.36-3.82.48-6.58.48-11.07v-40.11c0-4.56-.12-7.48-.48-11.07h12.68c-.36 3.89-.48 6.36-.48 11.07v13.24l11.9-15.94c2.33-3.07 3.89-5.61 5.2-8.38h16.15c-1.08 1.35-1.5 1.95-2.33 2.99q-3.11 3.89-4.19 5.24l-12.5 16.39 14.42 26.56z"/><path d="m410.21 51.85c-.36 3.07-.48 5.61-.48 11.07v40.11c0 5.16.12 7.93.48 11.07h-13.16c.36-2.92.48-6.06.48-11.07v-40.11c0-5.61-.12-7.78-.48-11.07z"/><path d="m1.52 15.63c1.05.14 1.95.22 3.39.22h5.59c1.48 0 2.38-.07 3.43-.22v4.8c-1.19-.18-1.95-.22-3.43-.22h-5.59c-1.41 0-2.2.04-3.39.22z"/><path d="m23.79 23.78c0 2.56.07 3.83.29 5.2h-5.38c.22-1.23.29-2.74.29-5.12v-19.02c0-1.98-.07-3.03-.29-4.69 1.48.07 2.38.11 4.58.11h10.1c2.27 0 3.43-.07 4.94-.25v4.86c-1.3-.18-2.63-.25-4.94-.25h-9.6v7.65h7.72c2.24 0 3.5-.07 4.91-.25v4.8c-1.33-.18-2.71-.25-4.91-.25h-7.72v7.22z"/><path d="m56.45 12.81c-1.52-.43-2.27-.58-3.21-.58-1.8 0-3.18.58-4.19 1.77-.9 1.05-1.26 1.88-1.48 3.61v6.68c0 1.95.07 3 .25 4.69h-5.16c.18-1.77.25-2.81.25-4.69v-11.33c0-2.2-.04-3.21-.25-4.69h4.91v3.39c1.3-2.56 3.54-3.79 6.78-3.79.87 0 1.73.11 3.36.4l-1.26 4.55z"/><path d="m60.46 18.66c0-6.71 4.19-11.01 10.75-11.01s10.68 4.26 10.68 10.93-4.22 11.08-10.65 11.08-10.79-4.26-10.79-11.01zm4.66 0c0 4.44 2.31 7.18 6.06 7.18s6.06-2.71 6.06-7.11c0-4.66-2.2-7.33-6.03-7.33s-6.1 2.74-6.1 7.25z"/><path d="m86.48 28.98c.22-1.55.29-2.67.29-4.69v-11.33c0-1.98-.07-3.21-.29-4.69h4.91v1.91c0 .54 0 .65-.07 1.55 2.2-2.81 4.11-3.83 7.36-3.83 2.78 0 4.84.9 6.14 2.67.87 1.19 1.23 2.63 1.23 5.05v8.66c0 1.98.07 3.36.29 4.69h-5.23c.18-1.62.25-2.85.25-4.69v-8.01c0-1.52-.18-2.49-.61-3.18-.58-.94-1.66-1.48-3.03-1.48-2.6 0-4.73 1.8-6.32 5.38v7.29c0 1.77.07 3.14.29 4.69h-5.2z"/><path d="m119.32 2.71c-.14 1.26-.25 2.81-.25 4.44v1.12h1.52c1.7 0 2.49-.04 3.65-.22v4.26c-1.19-.18-1.88-.22-3.54-.22h-1.62v11.19c0 1.77.65 2.42 2.38 2.42.94 0 1.52-.18 2.63-.79l.65 3.83c-1.55.58-2.63.76-4.51.76-4.15 0-5.81-1.48-5.81-5.27v-12.14h-1.37c-1.34 0-2.02.04-3.21.22v-4.26c1.05.18 1.73.22 3.25.22h1.33v-1.12c0-1.55-.11-3.14-.25-4.44h5.16z"/><path d="m132.1 19.81c.18 1.98.5 3 1.33 4.04 1.05 1.3 2.67 2.02 4.51 2.02s3.28-.65 4.33-1.8c.43-.51.69-.9 1.05-1.88l4.26 1.37c-.83 1.73-1.3 2.42-2.2 3.32-1.88 1.84-4.4 2.78-7.43 2.78-6.39 0-10.43-4.26-10.43-11.01s4.01-11.04 10.18-11.04c4.22 0 7.54 2.09 8.99 5.7.69 1.73.94 3.03 1.05 5.48 0 .07 0 .18.07 1.01h-15.7zm11.01-3.57c-.25-1.59-.69-2.56-1.59-3.46-.97-.97-2.2-1.44-3.9-1.44-2.81 0-4.87 1.88-5.41 4.91h10.9z"/><path d="m152.34 28.98c.22-1.55.29-2.67.29-4.69v-11.33c0-1.98-.07-3.21-.29-4.69h4.91v1.91c0 .54 0 .65-.07 1.55 2.2-2.81 4.11-3.83 7.36-3.83 2.78 0 4.84.9 6.13 2.67.87 1.19 1.23 2.63 1.23 5.05v8.66c0 1.98.07 3.36.29 4.69h-5.23c.18-1.62.25-2.85.25-4.69v-8.01c0-1.52-.18-2.49-.61-3.18-.58-.94-1.66-1.48-3.03-1.48-2.6 0-4.73 1.8-6.32 5.38v7.29c0 1.77.07 3.14.29 4.69h-5.2z"/><path d="m193.81 27.21c0-.43 0-.83.04-1.3-1.88 2.63-3.79 3.57-7.29 3.57-2.53 0-4.44-.58-6.03-1.84-2.42-1.88-3.75-5.16-3.75-9.06 0-6.6 3.79-10.79 9.74-10.79 2.24 0 4.08.54 5.49 1.66.65.5 1.05.94 1.84 1.98q0-.43-.04-1.15c-.04-.25-.04-.94-.04-1.55v-3.61c0-2.17-.07-3.36-.25-4.87h5.09c-.18 1.73-.25 3-.25 4.84v19.02c0 2.13.07 3.28.25 4.87h-4.8zm-6.42-1.59c1.91 0 3.75-.9 4.84-2.38.9-1.19 1.41-2.96 1.41-4.84 0-1.77-.69-3.64-1.73-4.8-1.12-1.23-2.96-2.02-4.69-2.02-3.5 0-5.74 2.74-5.74 7.04s2.31 7 5.92 7z"/><path d="m237.92 29.23c-1.3-.18-2.45-.25-4.66-.25h-11.26c-2.17 0-3.14.04-4.58.11.22-1.44.29-2.63.29-4.76v-19.53c0-1.88-.07-2.96-.29-4.66 1.44.07 2.38.11 4.58.11h10.9c1.8 0 3-.07 4.66-.25v4.76c-1.37-.18-2.53-.25-4.66-.25h-10.39v7.43h8.77c1.88 0 3.1-.07 4.69-.25v4.73c-1.48-.22-2.45-.25-4.69-.25h-8.81v8.52h10.83c2.02 0 3.07-.07 4.62-.25v4.8z"/><path d="m242.79 28.98c.22-1.55.29-2.67.29-4.69v-11.33c0-1.98-.07-3.21-.29-4.69h4.91v1.91c0 .54 0 .65-.07 1.55 2.2-2.81 4.11-3.83 7.36-3.83 2.78 0 4.84.9 6.13 2.67.87 1.19 1.23 2.63 1.23 5.05v8.66c0 1.98.07 3.36.29 4.69h-5.23c.18-1.62.25-2.85.25-4.69v-8.01c0-1.52-.18-2.49-.61-3.18-.58-.94-1.66-1.48-3.03-1.48-2.6 0-4.73 1.8-6.32 5.38v7.29c0 1.77.07 3.14.29 4.69h-5.2z"/><path d="m271.23 29.81c1.41 1.95 3 2.74 5.59 2.74 2.78 0 4.91-.97 5.92-2.71.61-1.08.87-2.35.94-4.8-1.8 2.27-3.93 3.28-7.07 3.28-5.74 0-9.42-3.93-9.42-10.1s3.79-10.28 9.64-10.28c3.21 0 5.34.97 6.89 3.18-.07-.72-.07-.79-.07-1.19v-1.66h4.84c-.18 1.55-.25 2.56-.25 4.51v12.09c0 4.33-.94 7.11-3.03 8.88-1.8 1.48-4.8 2.31-8.52 2.31-4.22 0-6.6-.97-9.06-3.75l3.61-2.49zm2.35-6.5c.9.97 2.45 1.62 3.83 1.62 1.98 0 4.01-1.15 5.02-2.85.69-1.12 1.01-2.45 1.01-4.11 0-2.31-.72-4.11-2.17-5.34-1.01-.83-2.2-1.3-3.5-1.3-3.61 0-5.85 2.71-5.85 7 0 2.13.58 3.9 1.66 4.98z"/><path d="m299.31.25v4.59h-5.3v-4.59zm-.04 8.01c-.18 1.33-.25 2.53-.25 4.73v11.26c0 1.98.07 3.21.25 4.73h-5.27c.22-1.62.29-2.89.29-4.69v-11.33c0-1.98-.07-3.21-.29-4.69h5.27z"/><path d="m304.76 28.98c.22-1.55.29-2.67.29-4.69v-11.33c0-1.98-.07-3.21-.29-4.69h4.91v1.91c0 .54 0 .65-.07 1.55 2.2-2.81 4.11-3.83 7.36-3.83 2.78 0 4.84.9 6.13 2.67.87 1.19 1.23 2.63 1.23 5.05v8.66c0 1.98.07 3.36.29 4.69h-5.23c.18-1.62.25-2.85.25-4.69v-8.01c0-1.52-.18-2.49-.61-3.18-.58-.94-1.66-1.48-3.03-1.48-2.6 0-4.73 1.8-6.32 5.38v7.29c0 1.77.07 3.14.29 4.69h-5.2z"/><path d="m333.74 19.81c.18 1.98.51 3 1.34 4.04 1.05 1.3 2.67 2.02 4.51 2.02s3.28-.65 4.33-1.8c.43-.51.69-.9 1.05-1.88l4.26 1.37c-.83 1.73-1.3 2.42-2.2 3.32-1.88 1.84-4.4 2.78-7.43 2.78-6.39 0-10.43-4.26-10.43-11.01s4.01-11.04 10.18-11.04c4.22 0 7.54 2.09 8.99 5.7.69 1.73.94 3.03 1.05 5.48 0 .07 0 .18.07 1.01h-15.7zm11.01-3.57c-.25-1.59-.69-2.56-1.59-3.46-.97-.97-2.2-1.44-3.9-1.44-2.81 0-4.87 1.88-5.41 4.91h10.9z"/><path d="m357.71 19.81c.18 1.98.51 3 1.34 4.04 1.05 1.3 2.67 2.02 4.51 2.02s3.28-.65 4.33-1.8c.43-.51.69-.9 1.05-1.88l4.26 1.37c-.83 1.73-1.3 2.42-2.2 3.32-1.88 1.84-4.4 2.78-7.43 2.78-6.39 0-10.43-4.26-10.43-11.01s4.01-11.04 10.18-11.04c4.22 0 7.54 2.09 8.99 5.7.69 1.73.94 3.03 1.05 5.48 0 .07 0 .18.07 1.01h-15.7zm11.01-3.57c-.25-1.59-.69-2.56-1.59-3.46-.97-.97-2.2-1.44-3.9-1.44-2.81 0-4.87 1.88-5.41 4.91h10.9z"/><path d="m391.81 12.81c-1.52-.43-2.27-.58-3.21-.58-1.8 0-3.18.58-4.19 1.77-.9 1.05-1.26 1.88-1.48 3.61v6.68c0 1.95.07 3 .25 4.69h-5.16c.18-1.77.25-2.81.25-4.69v-11.33c0-2.2-.04-3.21-.25-4.69h4.91v3.39c1.3-2.56 3.54-3.79 6.78-3.79.87 0 1.73.11 3.36.4l-1.26 4.55z"/><path d="m395.68 15.63c1.05.14 1.95.22 3.39.22h5.59c1.48 0 2.38-.07 3.43-.22v4.8c-1.19-.18-1.95-.22-3.43-.22h-5.59c-1.41 0-2.2.04-3.39.22z"/></g></svg>