<?xml version="1.0" encoding="UTF-8"?>
<svg id="_レイヤー_1" data-name="レイヤー 1" xmlns="http://www.w3.org/2000/svg" viewBox="0 0 241.97 81.53">
  <defs>
    <style>
      .cls-1 {
        fill: #dcb434;
      }
    </style>
  </defs>
  <g>
    <path class="cls-1" d="M4.16,64.86v16.67H0V43.99H4.16v12.52h4.21v8.36h4.16v4.16h4.16v4.21h-4.16v-4.21h-4.16v-4.16H4.16Zm4.21-8.36v-4.16h4.16v4.16h-4.16Zm4.16-4.16v-4.16h4.16v4.16h-4.16Zm4.16-4.16v-4.21h4.21v4.21h-4.21Zm4.21,25.03v8.31h-4.21v-8.31h4.21Z"/>
    <path class="cls-1" d="M29.19,77.38h-4.16v-29.19h4.16v29.19Zm12.52-29.19h-12.52v-4.21h12.52v4.21Zm0,33.34h-12.52v-4.16h12.52v4.16Zm0-4.16v-29.19h4.21v29.19h-4.21Z"/>
    <path class="cls-1" d="M54.22,64.86v16.67h-4.16V43.99h4.16v12.52h4.21v8.36h4.16v4.16h4.16v4.21h-4.16v-4.21h-4.16v-4.16h-4.21Zm4.21-8.36v-4.16h4.16v4.16h-4.16Zm4.16-4.16v-4.16h4.16v4.16h-4.16Zm4.16-4.16v-4.21h4.21v4.21h-4.21Zm4.21,25.03v8.31h-4.21v-8.31h4.21Z"/>
    <path class="cls-1" d="M79.25,81.53v-4.16h4.21v-29.19h-4.21v-4.21h12.52v4.21h-4.16v29.19h4.16v4.16h-12.52Z"/>
    <path class="cls-1" d="M129.32,77.38h-4.16v-29.19h4.16v29.19Zm12.52-29.19h-12.52v-4.21h12.52v4.21Zm0,33.34h-12.52v-4.16h12.52v4.16Zm0-4.16v-29.19h4.21v29.19h-4.21Z"/>
    <path class="cls-1" d="M150.2,48.19v-4.21h20.88v8.36h-4.21v8.36h-4.16v4.16h-4.16v8.36h-4.21v4.16h16.72v4.16h-20.88v-8.31h4.16v-8.36h4.21v-4.16h4.16v-8.36h4.16v-4.16h-16.67Z"/>
    <path class="cls-1" d="M196.11,64.86v16.67h-4.21v-12.52h-12.52v12.52h-4.16v-16.67h4.16v-12.52h4.21v12.52h4.16v-12.52h4.15v12.52h4.21Zm-8.36-12.52h-4.16v-8.36h4.16v8.36Z"/>
    <path class="cls-1" d="M204.42,64.86v16.67h-4.16V43.99h4.16v12.52h4.21v8.36h4.16v4.16h4.16v4.21h-4.16v-4.21h-4.16v-4.16h-4.21Zm4.21-8.36v-4.16h4.16v4.16h-4.16Zm4.16-4.16v-4.16h4.16v4.16h-4.16Zm4.16-4.16v-4.21h4.21v4.21h-4.21Zm4.21,25.03v8.31h-4.21v-8.31h4.21Z"/>
    <path class="cls-1" d="M229.45,81.53v-4.16h4.21v-29.19h-4.21v-4.21h12.52v4.21h-4.16v29.19h4.16v4.16h-12.52Z"/>
  </g>
  <g>
    <path class="cls-1" d="M4,13.82v-2.29H14.5v2.29H4Z"/>
    <path class="cls-1" d="M18.68,13.82v9.2h-2.09V2.29h10.5v2.32h-8.41v6.91h6.29v2.29h-6.29Z"/>
    <path class="cls-1" d="M31.27,13.82v9.2h-2.09V9.2h2.09v2.32h2.11v2.29h-2.11Zm6.29-2.29h-4.18v-2.32h4.18v2.32Zm0,0h2.11v2.29h-2.11v-2.29Z"/>
    <path class="cls-1" d="M43.85,20.73h-2.09V11.53h2.09v9.21Zm6.29-9.21h-6.29v-2.32h6.29v2.32Zm0,11.5h-6.29v-2.29h6.29v2.29Zm0-2.29V11.53h2.11v9.21h-2.11Z"/>
    <path class="cls-1" d="M56.44,13.82v9.2h-2.09V9.2h2.09v2.32h2.11v2.29h-2.11Zm6.29-2.29h-4.18v-2.32h4.18v2.32Zm2.11,0v11.5h-2.11V11.53h2.11Z"/>
    <path class="cls-1" d="M66.94,11.53v-2.32h2.09V2.29h2.11v6.91h4.18v2.32h-4.18v9.21h4.18v2.29h-4.18v-2.29h-2.11V11.53h-2.09Zm8.38,9.21v-2.29h2.11v2.29h-2.11Z"/>
    <path class="cls-1" d="M81.61,20.73h-2.09V11.53h2.09v2.29h6.29v-2.29h2.11v4.59h-8.41v4.62Zm6.29-9.21h-6.29v-2.32h6.29v2.32Zm0,11.5h-6.29v-2.29h6.29v2.29Zm0-2.29v-2.29h2.11v2.29h-2.11Z"/>
    <path class="cls-1" d="M94.2,13.82v9.2h-2.09V9.2h2.09v2.32h2.11v2.29h-2.11Zm6.29-2.29h-4.18v-2.32h4.18v2.32Zm2.11,0v11.5h-2.11V11.53h2.11Z"/>
    <path class="cls-1" d="M115.19,23.02h-8.41v-2.29h6.29V11.53h-6.29v9.21h-2.09V11.53h2.09v-2.32h6.29V2.29h2.11V23.02Z"/>
    <path class="cls-1" d="M140.37,23.02h-10.5V2.29h10.5v2.32h-8.41v6.91h6.29v2.29h-6.29v6.91h8.41v2.29Z"/>
    <path class="cls-1" d="M144.55,13.82v9.2h-2.09V9.2h2.09v2.32h2.11v2.29h-2.11Zm6.29-2.29h-4.18v-2.32h4.18v2.32Zm2.11,0v11.5h-2.11V11.53h2.11Z"/>
    <path class="cls-1" d="M163.43,25.35v-4.62h-6.29v-2.29h6.29v-6.91h-6.29v6.91h-2.09v-6.91h2.09v-2.32h8.41V25.35h-2.11Zm-8.38,0v-2.32h2.09v2.32h6.29v2.29h-6.29v-2.29h-2.09Z"/>
    <path class="cls-1" d="M169.72,23.02v-2.29h2.11V11.53h-2.11v-2.32h4.2v11.53h2.09v2.29h-6.29Zm2.11-20.73V0h2.09V2.29h-2.09Z"/>
    <path class="cls-1" d="M182.31,13.82v9.2h-2.09V9.2h2.09v2.32h2.11v2.29h-2.11Zm6.29-2.29h-4.18v-2.32h4.18v2.32Zm2.11,0v11.5h-2.11V11.53h2.11Z"/>
    <path class="cls-1" d="M194.9,20.73h-2.09V11.53h2.09v2.29h6.29v-2.29h2.11v4.59h-8.41v4.62Zm6.29-9.21h-6.29v-2.32h6.29v2.32Zm0,11.5h-6.29v-2.29h6.29v2.29Zm0-2.29v-2.29h2.11v2.29h-2.11Z"/>
    <path class="cls-1" d="M207.48,20.73h-2.09V11.53h2.09v2.29h6.29v-2.29h2.11v4.59h-8.41v4.62Zm6.29-9.21h-6.29v-2.32h6.29v2.32Zm0,11.5h-6.29v-2.29h6.29v2.29Zm0-2.29v-2.29h2.11v2.29h-2.11Z"/>
    <path class="cls-1" d="M220.07,13.82v9.2h-2.09V9.2h2.09v2.32h2.11v2.29h-2.11Zm6.29-2.29h-4.18v-2.32h4.18v2.32Zm0,0h2.11v2.29h-2.11v-2.29Z"/>
    <path class="cls-1" d="M230.57,13.82v-2.29h10.5v2.29h-10.5Z"/>
  </g>
</svg>