<svg height="480" width="480" xmlns="http://www.w3.org/2000/svg"><path d="m60 0h30v30h-30z"/><path d="m90 0h30v30h-30z"/><path d="m120 0h30v30h-30z"/><path d="m150 0h30v30h-30z"/><path d="m180 0h30v30h-30z"/><path d="m210 0h30v30h-30z"/><path d="m240 0h30v30h-30z"/><path d="m270 0h30v30h-30z"/><path d="m300 0h30v30h-30z"/><path d="m330 0h30v30h-30z"/><path d="m360 0h30v30h-30z"/><path d="m390 0h30v30h-30z"/><path d="m30 30h30v30h-30z"/><path d="m60 30h30v30h-30z" fill="#424242"/><path d="m90 30h30v30h-30z" fill="#424242"/><path d="m120 30h30v30h-30z" fill="#424242"/><path d="m150 30h30v30h-30z" fill="#424242"/><path d="m180 30h30v30h-30z" fill="#424242"/><path d="m210 30h30v30h-30z" fill="#424242"/><path d="m240 30h30v30h-30z" fill="#424242"/><path d="m270 30h30v30h-30z" fill="#424242"/><path d="m300 30h30v30h-30z" fill="#424242"/><path d="m330 30h30v30h-30z" fill="#424242"/><path d="m360 30h30v30h-30z" fill="#424242"/><path d="m390 30h30v30h-30z" fill="#424242"/><path d="m420 30h30v30h-30z"/><path d="m0 60h30v30h-30z"/><g fill="#424242"><path d="m30 60h30v30h-30z"/><path d="m60 60h30v30h-30z"/><path d="m90 60h30v30h-30z"/><path d="m120 60h30v30h-30z"/><path d="m150 60h30v30h-30z"/><path d="m180 60h30v30h-30z"/><path d="m210 60h30v30h-30z"/><path d="m240 60h30v30h-30z"/><path d="m270 60h30v30h-30z"/><path d="m300 60h30v30h-30z"/><path d="m330 60h30v30h-30z"/><path d="m360 60h30v30h-30z"/><path d="m390 60h30v30h-30z"/></g><path d="m420 60h30v30h-30z" fill="#212121"/><path d="m450 60h30v30h-30z"/><path d="m0 90h30v30h-30z"/><path d="m30 90h30v30h-30z" fill="#424242"/><path d="m60 90h30v30h-30z" fill="#424242"/><path d="m90 90h30v30h-30z" fill="#424242"/><path d="m120 90h30v30h-30z" fill="#424242"/><path d="m150 90h30v30h-30z" fill="#424242"/><path d="m180 90h30v30h-30z" fill="#424242"/><path d="m210 90h30v30h-30z" fill="#424242"/><path d="m240 90h30v30h-30z" fill="#424242"/><path d="m270 90h30v30h-30z" fill="#424242"/><path d="m300 90h30v30h-30z" fill="#424242"/><path d="m330 90h30v30h-30z" fill="#424242"/><path d="m360 90h30v30h-30z" fill="#424242"/><path d="m390 90h30v30h-30z" fill="#424242"/><path d="m420 90h30v30h-30z" fill="#212121"/><path d="m450 90h30v30h-30z"/><path d="m0 120h30v30h-30z"/><path d="m30 120h30v30h-30z" fill="#424242"/><path d="m60 120h30v30h-30z" fill="#424242"/><path d="m90 120h30v30h-30z" fill="#424242"/><path d="m120 120h30v30h-30z" fill="#424242"/><path d="m150 120h30v30h-30z" fill="#424242"/><path d="m180 120h30v30h-30z" fill="#424242"/><path d="m210 120h30v30h-30z" fill="#424242"/><path d="m240 120h30v30h-30z" fill="#424242"/><path d="m270 120h30v30h-30z" fill="#424242"/><path d="m300 120h30v30h-30z" fill="#424242"/><path d="m330 120h30v30h-30z" fill="#424242"/><path d="m360 120h30v30h-30z" fill="#424242"/><path d="m390 120h30v30h-30z" fill="#424242"/><path d="m420 120h30v30h-30z" fill="#212121"/><path d="m450 120h30v30h-30z"/><path d="m0 150h30v30h-30z"/><path d="m30 150h30v30h-30z" fill="#424242"/><path d="m60 150h30v30h-30z" fill="#424242"/><path d="m90 150h30v30h-30z" fill="#424242"/><path d="m120 150h30v30h-30z" fill="#424242"/><path d="m150 150h30v30h-30z" fill="#fff"/><path d="m180 150h30v30h-30z" fill="#fff"/><path d="m210 150h30v30h-30z" fill="#fff"/><path d="m240 150h30v30h-30z" fill="#424242"/><path d="m270 150h30v30h-30z" fill="#424242"/><path d="m300 150h30v30h-30z" fill="#424242"/><path d="m330 150h30v30h-30z" fill="#424242"/><path d="m360 150h30v30h-30z" fill="#424242"/><path d="m390 150h30v30h-30z" fill="#424242"/><path d="m420 150h30v30h-30z" fill="#212121"/><path d="m450 150h30v30h-30z"/><path d="m0 180h30v30h-30z"/><path d="m30 180h30v30h-30z" fill="#424242"/><path d="m60 180h30v30h-30z" fill="#424242"/><path d="m90 180h30v30h-30z" fill="#fff"/><path d="m120 180h30v30h-30z" fill="#fff"/><path d="m150 180h30v30h-30z" fill="#424242"/><path d="m180 180h30v30h-30z" fill="#424242"/><path d="m210 180h30v30h-30z" fill="#424242"/><path d="m240 180h30v30h-30z" fill="#424242"/><path d="m270 180h30v30h-30z" fill="#424242"/><path d="m300 180h30v30h-30z" fill="#424242"/><path d="m330 180h30v30h-30z" fill="#424242"/><path d="m360 180h30v30h-30z" fill="#424242"/><path d="m390 180h30v30h-30z" fill="#424242"/><path d="m420 180h30v30h-30z" fill="#212121"/><path d="m450 180h30v30h-30z"/><path d="m0 210h30v30h-30z"/><path d="m30 210h30v30h-30z" fill="#424242"/><path d="m60 210h30v30h-30z" fill="#424242"/><path d="m90 210h30v30h-30z" fill="#fff"/><path d="m120 210h30v30h-30z" fill="#fff"/><path d="m150 210h30v30h-30z" fill="#424242"/><path d="m180 210h30v30h-30z" fill="#424242"/><path d="m210 210h30v30h-30z" fill="#424242"/><path d="m240 210h30v30h-30z" fill="#424242"/><path d="m270 210h30v30h-30z" fill="#424242"/><path d="m300 210h30v30h-30z" fill="#424242"/><path d="m330 210h30v30h-30z" fill="#424242"/><path d="m360 210h30v30h-30z" fill="#424242"/><path d="m390 210h30v30h-30z" fill="#424242"/><path d="m420 210h30v30h-30z" fill="#212121"/><path d="m450 210h30v30h-30z"/><path d="m0 240h30v30h-30z"/><path d="m30 240h30v30h-30z" fill="#424242"/><path d="m60 240h30v30h-30z" fill="#424242"/><path d="m90 240h30v30h-30z" fill="#fff"/><path d="m120 240h30v30h-30z" fill="#fff"/><path d="m150 240h30v30h-30z" fill="#424242"/><path d="m180 240h30v30h-30z" fill="#424242"/><path d="m210 240h30v30h-30z" fill="#424242"/><path d="m240 240h30v30h-30z" fill="#424242"/><path d="m270 240h30v30h-30z" fill="#424242"/><path d="m300 240h30v30h-30z" fill="#424242"/><path d="m330 240h30v30h-30z" fill="#424242"/><path d="m360 240h30v30h-30z" fill="#424242"/><path d="m390 240h30v30h-30z" fill="#424242"/><path d="m420 240h30v30h-30z" fill="#212121"/><path d="m450 240h30v30h-30z"/><path d="m0 270h30v30h-30z"/><path d="m30 270h30v30h-30z" fill="#424242"/><path d="m60 270h30v30h-30z" fill="#424242"/><path d="m90 270h30v30h-30z" fill="#fff"/><path d="m120 270h30v30h-30z" fill="#fff"/><path d="m150 270h30v30h-30z" fill="#424242"/><path d="m180 270h30v30h-30z" fill="#424242"/><path d="m210 270h30v30h-30z" fill="#424242"/><path d="m240 270h30v30h-30z" fill="#424242"/><path d="m270 270h30v30h-30z" fill="#424242"/><path d="m300 270h30v30h-30z" fill="#424242"/><path d="m330 270h30v30h-30z" fill="#424242"/><path d="m360 270h30v30h-30z" fill="#424242"/><path d="m390 270h30v30h-30z" fill="#424242"/><path d="m420 270h30v30h-30z" fill="#212121"/><path d="m450 270h30v30h-30z"/><path d="m0 300h30v30h-30z"/><path d="m30 300h30v30h-30z" fill="#424242"/><path d="m60 300h30v30h-30z" fill="#424242"/><path d="m90 300h30v30h-30z" fill="#424242"/><path d="m120 300h30v30h-30z" fill="#424242"/><path d="m150 300h30v30h-30z" fill="#fff"/><path d="m180 300h30v30h-30z" fill="#fff"/><path d="m210 300h30v30h-30z" fill="#fff"/><path d="m240 300h30v30h-30z" fill="#424242"/><path d="m270 300h30v30h-30z" fill="#424242"/><path d="m300 300h30v30h-30z" fill="#424242"/><path d="m330 300h30v30h-30z" fill="#424242"/><path d="m360 300h30v30h-30z" fill="#424242"/><path d="m390 300h30v30h-30z" fill="#424242"/><path d="m420 300h30v30h-30z" fill="#212121"/><path d="m450 300h30v30h-30z"/><path d="m0 330h30v30h-30z"/><path d="m30 330h30v30h-30z" fill="#424242"/><path d="m60 330h30v30h-30z" fill="#424242"/><path d="m90 330h30v30h-30z" fill="#424242"/><path d="m120 330h30v30h-30z" fill="#424242"/><path d="m150 330h30v30h-30z" fill="#424242"/><path d="m180 330h30v30h-30z" fill="#424242"/><path d="m210 330h30v30h-30z" fill="#424242"/><path d="m240 330h30v30h-30z" fill="#424242"/><path d="m270 330h30v30h-30z" fill="#424242"/><path d="m300 330h30v30h-30z" fill="#424242"/><path d="m330 330h30v30h-30z" fill="#424242"/><path d="m360 330h30v30h-30z" fill="#424242"/><path d="m390 330h30v30h-30z" fill="#424242"/><path d="m420 330h30v30h-30z" fill="#212121"/><path d="m450 330h30v30h-30z"/><path d="m0 360h30v30h-30z"/><path d="m30 360h30v30h-30z" fill="#424242"/><path d="m60 360h30v30h-30z" fill="#424242"/><path d="m90 360h30v30h-30z" fill="#424242"/><path d="m120 360h30v30h-30z" fill="#424242"/><path d="m150 360h30v30h-30z" fill="#424242"/><path d="m180 360h30v30h-30z" fill="#424242"/><path d="m210 360h30v30h-30z" fill="#424242"/><path d="m240 360h30v30h-30z" fill="#424242"/><path d="m270 360h30v30h-30z" fill="#424242"/><path d="m300 360h30v30h-30z" fill="#424242"/><path d="m330 360h30v30h-30z" fill="#424242"/><path d="m360 360h30v30h-30z" fill="#424242"/><path d="m390 360h30v30h-30z" fill="#424242"/><path d="m420 360h30v30h-30z" fill="#212121"/><path d="m450 360h30v30h-30z"/><path d="m0 390h30v30h-30z"/><path d="m30 390h30v30h-30z" fill="#424242"/><path d="m60 390h30v30h-30z" fill="#424242"/><path d="m90 390h30v30h-30z" fill="#424242"/><path d="m120 390h30v30h-30z" fill="#424242"/><path d="m150 390h30v30h-30z" fill="#424242"/><path d="m180 390h30v30h-30z" fill="#424242"/><path d="m210 390h30v30h-30z" fill="#424242"/><path d="m240 390h30v30h-30z" fill="#424242"/><path d="m270 390h30v30h-30z" fill="#424242"/><path d="m300 390h30v30h-30z" fill="#424242"/><path d="m330 390h30v30h-30z" fill="#424242"/><path d="m360 390h30v30h-30z" fill="#424242"/><path d="m390 390h30v30h-30z" fill="#424242"/><path d="m420 390h30v30h-30z" fill="#212121"/><path d="m450 390h30v30h-30z"/><path d="m30 420h30v30h-30z"/><path d="m60 420h30v30h-30z" fill="#212121"/><path d="m90 420h30v30h-30z" fill="#212121"/><path d="m120 420h30v30h-30z" fill="#212121"/><path d="m150 420h30v30h-30z" fill="#212121"/><path d="m180 420h30v30h-30z" fill="#212121"/><path d="m210 420h30v30h-30z" fill="#212121"/><path d="m240 420h30v30h-30z" fill="#212121"/><path d="m270 420h30v30h-30z" fill="#212121"/><path d="m300 420h30v30h-30z" fill="#212121"/><path d="m330 420h30v30h-30z" fill="#212121"/><path d="m360 420h30v30h-30z" fill="#212121"/><path d="m390 420h30v30h-30z" fill="#212121"/><path d="m420 420h30v30h-30z"/><path d="m60 450h30v30h-30z"/><path d="m90 450h30v30h-30z"/><path d="m120 450h30v30h-30z"/><path d="m150 450h30v30h-30z"/><path d="m180 450h30v30h-30z"/><path d="m210 450h30v30h-30z"/><path d="m240 450h30v30h-30z"/><path d="m270 450h30v30h-30z"/><path d="m300 450h30v30h-30z"/><path d="m330 450h30v30h-30z"/><path d="m360 450h30v30h-30z"/><path d="m390 450h30v30h-30z"/></svg>